PathFileType	4	(X/Y/Z)	Run_400 02
DataRate	CameraRate	NumFrames	NumMarkers	Units	OrigDataRate	OrigDataStartFrame	OrigNumFrames
100	100	6	42	mm	100	28	128
Frame#	Time	LASI			RASI			LPSI			RPSI			RTH1			RTH3			LTH1			LTH2			LTH3			RTB1			RTB2			LTB1			LTB2			RCAL			RTOE			LCAL			LTOE			LACR			RACR			CLAV			C7			RUA1			RUA2			RUA3			RLEL			RMEL			LUA1			LUA2			LUA3			LLEL			LMEL			RFAsuperior			RFAradius			RFAulna			LFAsuperior			LFAradius			LFAulna			RTH2			RTB3			RMT5			LMT5			LTB3			
		X1	Y1	Z1	X2	Y2	Z2	X3	Y3	Z3	X4	Y4	Z4	X5	Y5	Z5	X6	Y6	Z6	X7	Y7	Z7	X8	Y8	Z8	X9	Y9	Z9	X10	Y10	Z10	X11	Y11	Z11	X12	Y12	Z12	X13	Y13	Z13	X14	Y14	Z14	X15	Y15	Z15	X16	Y16	Z16	X17	Y17	Z17	X18	Y18	Z18	X19	Y19	Z19	X20	Y20	Z20	X21	Y21	Z21	X22	Y22	Z22	X23	Y23	Z23	X24	Y24	Z24	X25	Y25	Z25	X26	Y26	Z26	X27	Y27	Z27	X28	Y28	Z28	X29	Y29	Z29	X30	Y30	Z30	X31	Y31	Z31	X32	Y32	Z32	X33	Y33	Z33	X34	Y34	Z34	X35	Y35	Z35	X36	Y36	Z36	X37	Y37	Z37	X38	Y38	Z38	X39	Y39	Z39	X40	Y40	Z40	X41	Y41	Z41	X42	Y42	Z42	

25	0.43	801.207774	1011.365298	-458.118089	799.240132	1020.635122	-204.978638	626.72252	1125.936192	-375.243863	629.015347	1118.075704	-292.755337	690.321994	902.776565	-156.363176	572.496722	691.61465	-193.950621	778.227691	956.163553	-520.813631	891.911417	889.001637	-496.20384	892.531908	734.080731	-486.277086	493.418911	450.039027	-251.763267	389.929219	405.611775	-204.739621	967.817495	527.4756180000001	-414.7254	880.161885	471.795337	-471.003785	184.519791	318.833592	-299.15249	285.112174	108.055197	-293.429878	700.8542169999999	256.0906	-354.871734	913.669592	164.445862	-364.085868	744.14575	1593.666758	-474.215415	779.4147809999999	1546.24037	-144.777751	836.008877	1525.918639	-302.98797	695.8088279999999	1596.889824	-316.549129	746.020641	1427.860706	-63.747986	672.541162	1349.914808	-78.851417	724.817408	1311.018588	-38.428955	725.708092	1215.10771	-17.65325	684.373032	1193.737498	-90.28434	654.692121	1550.571463	-569.076355	566.03139	1508.434332	-554.701532	578.283784	1479.203669	-630.367786	530.147844	1411.706949	-676.889085	473.376567	1408.302194	-623.0868379999999	798.486174	1187.362618	-44.677609	963.8278309999999	1224.963025	-160.818807	958.220115	1153.897984	-145.520167	568.395709	1291.63547	-653.388595	652.627931	1196.285717	-557.281105	593.243453	1168.167815	-574.682693	687.532862	759.642352	-175.813337	351.463989	307.093301	-261.951947	223.93122	110.871486	-222.741245	867.5403	135.741526	-437.78365	871.916472	344.413979	-389.012489	
26	0.44	802.718521	1014.224984	-459.869566	801.221492	1023.424025	-206.743722	627.92572	1129.431122	-374.329678	630.73471	1121.964489	-290.904123	693.458204	904.806979	-156.232028	574.9606209999999	693.768927	-191.522251	774.443456	954.722983	-521.802064	888.8839390000001	886.904635	-496.730048	885.799408	731.063134	-484.296284	486.025982	455.797265	-250.922899	379.850735	417.474826	-204.794199	969.661532	523.253345	-413.709752	888.352227	458.21285	-469.600568	168.388172	345.076459	-297.685242	257.724386	129.563139	-300.868502	735.022027	224.386122	-350.387779	956.387593	156.560489	-360.912308	744.330769	1596.862532	-475.998205	779.6420910000001	1550.979574	-146.866637	836.2960849999999	1529.253499	-305.298761	695.739528	1599.961823	-318.778854	746.202614	1433.201483	-65.530069	673.166099	1354.872664	-80.093587	725.257564	1316.624438	-38.84148	726.705976	1220.470675	-18.168346	684.653773	1198.70899	-89.967669	653.5783259999999	1555.248233	-570.065422	564.947181	1514.4314	-553.566971	575.161396	1484.891134	-629.507912	525.187661	1417.97132	-675.415523	469.542067	1415.04335	-620.204293	799.19568	1192.738439	-45.615175	963.196905	1230.654575	-163.787022	957.804083	1159.636775	-148.457465	564.265938	1298.317041	-652.1998170000001	650.512444	1203.31922	-556.795577	590.931997	1175.131843	-572.791633	690.210147	761.59048	-177.33828	335.02125	322.421751	-263.319306	196.687297	132.883793	-229.448221	913.228876	122.465819	-434.219917	894.708429	331.061365	-386.551809	
27	0.45	803.971166	1016.701588	-461.915636	802.944377	1025.830018	-208.805831	628.318309	1132.075631	-373.498365	632.132301	1125.718349	-288.59546	697.587792	905.896926	-155.868578	578.918812	694.516469	-189.513727	770.798254	952.403064	-522.874944	886.072286	882.943831	-496.896817	877.805509	725.993279	-483.288427	480.551477	460.630368	-250.048513	371.661495	429.337499	-205.121168	968.521843	517.445461	-412.564611	894.841309	444.074865	-468.027285	154.273649	372.595959	-296.440861	232.08997	153.49606	-309.304724	768.640065	195.324458	-347.102726	995.723799	151.72858	-357.25901	744.42731	1598.712609	-477.775465	779.828726	1554.469221	-148.884066	836.618421	1531.559366	-307.460233	695.853568	1602.032705	-320.951343	746.1182690000001	1437.244947	-67.301632	673.35876	1358.653193	-81.537144	725.183263	1320.872668	-39.501833	726.633123	1224.594036	-19.347996	684.129893	1202.598612	-89.894672	652.815467	1558.087245	-571.328391	564.236804	1518.081075	-553.263328	573.0904430000001	1488.257291	-629.331669	522.001801	1421.635518	-674.8152250000001	467.078569	1418.885557	-618.6170499999999	798.953083	1196.582027	-46.397897	961.986611	1233.198734	-166.135238	956.653979	1162.490402	-150.034807	562.282275	1302.561081	-651.464702	650.223209	1208.32913	-556.398103	590.5983	1179.878403	-571.293531	694.184591	762.584887	-178.691149	320.456203	338.562494	-265.070302	171.689096	156.92956	-236.656829	956.693809	112.289932	-430.164409	915.2380910000001	318.663949	-384.096484	
28	0.46	805.168142	1018.711841	-463.588064	804.611412	1027.770098	-210.496525	628.38509	1133.30994	-372.575568	633.020434	1128.218292	-286.401843	701.928459	906.535862	-155.386468	583.581184	694.183039	-188.385333	767.545685	949.7567749999999	-523.540607	882.601807	876.810457	-496.908265	868.173535	719.161111	-482.770915	477.131721	464.685146	-249.510219	365.915929	441.133324	-205.680499	964.901503	510.582583	-411.411309	899.076703	430.361851	-466.244819	144.281312	401.436722	-296.496359	208.907185	178.619142	-315.871798	800.2539	170.224188	-344.605695	1030.243936	149.893879	-354.196253	744.426409	1599.166759	-479.573851	780.207757	1556.48778	-151.030903	836.898837	1532.764244	-309.488202	696.210319	1603.063882	-323.035978	745.958827	1439.928964	-68.999264	673.110502	1361.368941	-83.098423	724.479478	1323.823124	-40.332668	725.464504	1227.489141	-20.399411	682.679745	1205.524071	-90.12548	652.343462	1559.039099	-572.849779	563.836105	1519.216332	-553.918469	572.024456	1489.194631	-629.9744930000001	520.581418	1422.523219	-675.299153	465.988604	1419.619344	-618.500988	797.57343	1198.730827	-47.046781	960.199829	1232.609736	-167.90804	954.637053	1162.317329	-150.444736	562.3796579999999	1304.183731	-651.371741	651.824034	1211.206785	-556.27712	592.364834	1182.149326	-570.461978	698.820292	762.64806	-179.344817	308.357807	355.371133	-266.716546	148.815291	183.220184	-242.654251	995.76734	105.269153	-426.402952	932.901623	307.765093	-382.186803	
29	0.47	806.371092	1019.902836	-464.626274	806.284505	1028.890812	-211.552673	628.20227	1132.524353	-371.522746	633.063059	1128.48874	-284.84275	705.742792	906.6112460000001	-154.776642	588.7038240000001	692.649778	-187.951379	764.637329	946.67794	-523.7159	877.599425	868.5260929999999	-496.949307	856.75961	710.912117	-481.947448	475.855311	467.876224	-249.152234	362.77947	452.818418	-206.386057	959.549	503.371344	-410.334398	900.597912	418.111359	-464.547233	138.941895	431.00524	-298.572187	188.750611	204.317889	-319.013798	827.849277	150.299422	-342.375271	1058.401761	150.078162	-353.275123	744.368173	1598.200381	-481.532389	780.8424240000001	1556.997667	-153.362825	837.073305	1532.711507	-311.455224	696.718246	1603.061859	-325.081199	745.718715	1441.280407	-70.609241	672.2679869999999	1363.220153	-84.641734	723.037599	1325.584412	-41.294771	723.212896	1229.225377	-20.92375	680.20409	1207.561793	-90.538725	652.148296	1558.030845	-574.736494	563.737393	1517.830648	-555.534703	571.934586	1487.675163	-631.545212	520.874683	1420.582464	-676.964145	466.263922	1417.202567	-619.864143	794.919938	1199.083632	-47.470209	957.83097	1228.99392	-169.062176	951.447931	1159.017431	-150.134654	564.472021	1303.15545	-652.133969	655.297826	1211.928885	-556.573002	596.296611	1181.809116	-570.531065	703.460074	761.807128	-178.758268	298.997392	372.631947	-268.109125	128.459423	212.072847	-246.090659	1027.705742	100.74517	-424.294486	946.969728	298.837122	-381.372453	
30	0.48	807.44172	1019.922867	-465.251165	807.825363	1028.839579	-212.193906	627.62656	1129.49262	-370.41022	632.257487	1126.456601	-283.947593	708.76522	905.594352	-153.896715	594.538196	689.606455	-187.596586	761.936651	942.680956	-523.528927	871.013373	858.655938	-496.98306	844.282423	701.8799760000001	-480.507541	476.710436	470.063092	-248.488373	362.2263	464.299869	-207.055814	953.226863	496.476896	-409.363576	899.305387	407.927525	-463.106899	137.804965	460.315107	-302.359415	172.093874	230.270881	-318.751428	849.238333	135.930512	-340.089422	1078.849542	150.567373	-355.485217	744.312312	1595.754625	-483.795043	781.565115	1556.15969	-155.78127	837.089803	1531.272196	-313.444702	697.15481	1602.035518	-327.217936	745.231776	1441.374977	-72.17150100000001	670.69484	1364.325518	-86.084177	720.835205	1326.243128	-42.349521	719.8816890000001	1229.843187	-21.235793	676.694992	1208.691919	-90.962656	652.255134	1554.974188	-577.106308	563.991869	1514.002405	-558.084854	572.794066	1483.697392	-634.099218	522.752909	1415.828335	-679.679968	467.877139	1411.706685	-622.627116	790.976521	1197.712109	-47.54535	954.782683	1222.50012	-169.452884	946.863751	1152.815604	-149.364285	568.443006	1299.547993	-653.859185	660.55251	1210.55122	-557.353344	602.301919	1178.974266	-571.5135780000001	707.679001	760.119244	-176.736762	292.643373	389.989936	-269.262926	111.713199	243.157186	-246.551651	1050.133662	97.45350500000001	-424.849412	956.698038	291.915327	-381.795042	
